{
 "accessors": [
  {
   "componentType": 5126,
   "type": "VEC3",
   "count": 12,
   "max": [
    1.2030800580978394,
    13.911700248718262,
    7.731959819793701
   ],
   "min": [
    -1.2030800580978394,
    12.000200271606445,
    5.855989933013916
   ],
   "bufferView": 1
  },
  {
   "componentType": 5126,
   "type": "VEC3",
   "count": 12,
   "bufferView": 2
  },
  {
   "componentType": 5126,
   "type": "VEC2",
   "count": 12,
   "bufferView": 3
  },
  {
   "componentType": 5121,
   "type": "SCALAR",
   "count": 18,
   "bufferView": 4
  },
  {
   "componentType": 5126,
   "type": "VEC3",
   "count": 770,
   "max": [
    11.837499618530273,
    16.296499252319336,
    8.952340126037598
   ],
   "min": [
    -11.837499618530273,
    -0.07364600151777267,
    -20.086999893188477
   ],
   "bufferView": 5
  },
  {
   "componentType": 5126,
   "type": "VEC3",
   "count": 770,
   "bufferView": 6
  },
  {
   "componentType": 5126,
   "type": "VEC2",
   "count": 770,
   "bufferView": 7
  },
  {
   "componentType": 5123,
   "type": "SCALAR",
   "count": 3402,
   "bufferView": 8
  }
 ],
 "asset": {
  "version": "2.0",
  "generator": "clara.io"
 },
 "bufferViews": [
  {
   "buffer": 0,
   "byteOffset": 0,
   "byteLength": 12590
  },
  {
   "buffer": 0,
   "byteOffset": 12592,
   "byteLength": 144,
   "target": 34962,
   "byteStride": 12
  },
  {
   "buffer": 0,
   "byteOffset": 12736,
   "byteLength": 144,
   "target": 34962,
   "byteStride": 12
  },
  {
   "buffer": 0,
   "byteOffset": 12880,
   "byteLength": 96,
   "target": 34962,
   "byteStride": 8
  },
  {
   "buffer": 0,
   "byteOffset": 12976,
   "byteLength": 18,
   "target": 34963
  },
  {
   "buffer": 0,
   "byteOffset": 12996,
   "byteLength": 9240,
   "target": 34962,
   "byteStride": 12
  },
  {
   "buffer": 0,
   "byteOffset": 22236,
   "byteLength": 9240,
   "target": 34962,
   "byteStride": 12
  },
  {
   "buffer": 0,
   "byteOffset": 31476,
   "byteLength": 6160,
   "target": 34962,
   "byteStride": 8
  },
  {
   "buffer": 0,
   "byteOffset": 37636,
   "byteLength": 6804,
   "target": 34963
  }
 ],
 "buffers": [
  {
   "byteLength": 44440,
   "uri": "data:application/octet-stream;base64,"
  }
 ],
 "images": [
  {
   "name": "lizardon_0_0.tga",
   "bufferView": 0,
   "mimeType": "image/png"
  }
 ],
 "materials": [
  {
   "name": "mat_0",
   "pbrMetallicRoughness": {
    "baseColorFactor": [
     0.6862745098039216,
     0.6862745098039216,
     0.6862745098039216,
     1
    ],
    "baseColorTexture": {
     "index": 0,
     "texCoord": 0
    },
    "roughnessFactor": 0.6325,
    "metallicFactor": 0
   },
   "doubleSided": true
  },
  {
   "name": "mat_1",
   "pbrMetallicRoughness": {
    "baseColorFactor": [
     0.6862745098039216,
     0.6862745098039216,
     0.6862745098039216,
     1
    ],
    "baseColorTexture": {
     "index": 0,
     "texCoord": 0
    },
    "roughnessFactor": 0.6325,
    "metallicFactor": 0
   },
   "doubleSided": true
  }
 ],
 "meshes": [
  {
   "primitives": [
    {
     "indices": 3,
     "material": 1,
     "mode": 4,
     "attributes": {
      "POSITION": 0,
      "NORMAL": 1,
      "TEXCOORD_0": 2
     }
    }
   ]
  },
  {
   "primitives": [
    {
     "indices": 7,
     "material": 0,
     "mode": 4,
     "attributes": {
      "POSITION": 4,
      "NORMAL": 5,
      "TEXCOORD_0": 6
     }
    }
   ]
  }
 ],
 "nodes": [
  {
   "name": "BR_Charizard",
   "rotation": [
    0.06252052405066397,
    0,
    0,
    0.9980436799059821
   ],
   "children": [
    2,
    3
   ]
  },
  {
   "name": "LightPreset",
   "translation": [
    0,
    8.7427978515625,
    -4.511529445648193
   ]
  },
  {
   "name": "lizardon_mat_1_lizardon_mat_1",
   "translation": [
    0,
    -0.10000000149011612,
    -0.10000000149011612
   ],
   "rotation": [
    0.01066611020076577,
    -0.003409339846733058,
    -0.08129706875844747,
    0.9966270141318062
   ],
   "mesh": 0
  },
  {
   "name": "lizardon_mat_0_lizardon_mat_0",
   "rotation": [
    0.001201014625936431,
    -0.011404498820186477,
    -0.08996818633924782,
    0.9958786152409782
   ],
   "mesh": 1
  }
 ],
 "samplers": [
  {
   "magFilter": 9729,
   "minFilter": 9987,
   "wrapS": 10497,
   "wrapT": 10497
  }
 ],
 "scene": 0,
 "scenes": [
  {
   "nodes": [
    0,
    1
   ]
  }
 ],
 "textures": [
  {
   "sampler": 0,
   "source": 0
  }
 ]
}