{
 "accessors": [
  {
   "componentType": 5126,
   "type": "VEC3",
   "count": 60,
   "max": [
    0.9291260242462158,
    -1.6124900579452515,
    4.010550022125244
   ],
   "min": [
    -0.9291269779205322,
    -2.237489938735962,
    3.081209897994995
   ],
   "bufferView": 2
  },
  {
   "componentType": 5126,
   "type": "VEC3",
   "count": 60,
   "bufferView": 3
  },
  {
   "componentType": 5126,
   "type": "VEC2",
   "count": 60,
   "bufferView": 4
  },
  {
   "componentType": 5121,
   "type": "SCALAR",
   "count": 240,
   "bufferView": 5
  },
  {
   "componentType": 5126,
   "type": "VEC3",
   "count": 889,
   "max": [
    1.5929499864578247,
    2.5539400577545166,
    4.445799827575684
   ],
   "min": [
    -1.5929499864578247,
    -2.349179983139038,
    0
   ],
   "bufferView": 6
  },
  {
   "componentType": 5126,
   "type": "VEC3",
   "count": 889,
   "bufferView": 7
  },
  {
   "componentType": 5126,
   "type": "VEC2",
   "count": 889,
   "bufferView": 8
  },
  {
   "componentType": 5123,
   "type": "SCALAR",
   "count": 4356,
   "bufferView": 9
  }
 ],
 "asset": {
  "version": "2.0",
  "generator": "clara.io"
 },
 "bufferViews": [
  {
   "buffer": 0,
   "byteOffset": 0,
   "byteLength": 40535
  },
  {
   "buffer": 0,
   "byteOffset": 40536,
   "byteLength": 11317
  },
  {
   "buffer": 0,
   "byteOffset": 51856,
   "byteLength": 720,
   "target": 34962,
   "byteStride": 12
  },
  {
   "buffer": 0,
   "byteOffset": 52576,
   "byteLength": 720,
   "target": 34962,
   "byteStride": 12
  },
  {
   "buffer": 0,
   "byteOffset": 53296,
   "byteLength": 480,
   "target": 34962,
   "byteStride": 8
  },
  {
   "buffer": 0,
   "byteOffset": 53776,
   "byteLength": 240,
   "target": 34963
  },
  {
   "buffer": 0,
   "byteOffset": 54016,
   "byteLength": 10668,
   "target": 34962,
   "byteStride": 12
  },
  {
   "buffer": 0,
   "byteOffset": 64684,
   "byteLength": 10668,
   "target": 34962,
   "byteStride": 12
  },
  {
   "buffer": 0,
   "byteOffset": 75352,
   "byteLength": 7112,
   "target": 34962,
   "byteStride": 8
  },
  {
   "buffer": 0,
   "byteOffset": 82464,
   "byteLength": 8712,
   "target": 34963
  }
 ],
 "buffers": [
  {
   "byteLength": 91176,
   "uri": "data:application/octet-stream;base64,"
  }
 ],
 "images": [
  {
   "name": "ZenigameDh.tga",
   "bufferView": 0,
   "mimeType": "image/png"
  },
  {
   "name": "ZenigameEyeDh.tga",
   "bufferView": 1,
   "mimeType": "image/png"
  }
 ],
 "materials": [
  {
   "name": "mat1",
   "pbrMetallicRoughness": {
    "baseColorTexture": {
     "index": 0,
     "texCoord": 0
    },
    "roughnessFactor": 0.7071,
    "metallicFactor": 0
   },
   "doubleSided": true
  },
  {
   "name": "mat2",
   "pbrMetallicRoughness": {
    "baseColorTexture": {
     "index": 1,
     "texCoord": 0
    },
    "roughnessFactor": 0.7071,
    "metallicFactor": 0
   },
   "doubleSided": true
  }
 ],
 "meshes": [
  {
   "primitives": [
    {
     "indices": 3,
     "material": 1,
     "mode": 4,
     "attributes": {
      "POSITION": 0,
      "NORMAL": 1,
      "TEXCOORD_0": 2
     }
    }
   ]
  },
  {
   "primitives": [
    {
     "indices": 7,
     "material": 0,
     "mode": 4,
     "attributes": {
      "POSITION": 4,
      "NORMAL": 5,
      "TEXCOORD_0": 6
     }
    }
   ]
  }
 ],
 "nodes": [
  {
   "name": "Squirtle",
   "rotation": [
    0.6554654198583242,
    0,
    0,
    0.7552251890647272
   ]
  },
  {
   "name": "polygon0_mat2_polygon0_mat2",
   "rotation": [
    0.6554654198583242,
    0,
    0,
    0.7552251890647272
   ],
   "mesh": 0
  },
  {
   "name": "polygon1_mat1_polygon1_mat1",
   "rotation": [
    0.6554654198583242,
    0,
    0,
    0.7552251890647272
   ],
   "mesh": 1
  }
 ],
 "samplers": [
  {
   "magFilter": 9729,
   "minFilter": 9987,
   "wrapS": 10497,
   "wrapT": 10497
  }
 ],
 "scene": 0,
 "scenes": [
  {
   "nodes": [
    0,
    1,
    2
   ]
  }
 ],
 "textures": [
  {
   "sampler": 0,
   "source": 0
  },
  {
   "sampler": 0,
   "source": 1
  }
 ]
}